<svg viewBox="0 0 1024 1024" xmlns="http://www.w3.org/2000/svg"><path d="M32 216v592h286c26.5 0 209-5.375 209-172 0-104.125-71.625-139.5-108-150 26.75-12.625 80-42.625 80-123 0-44.75-6.375-147-189-147zm652 55v54h221v-54zm-522 46h122c11.5 0 89-6.125 89 68 0 63.375-56 70-79 70H162zm638 57c-167.125 0-202 145.125-202 208 0 186.625 153 208 202 208 132.125 0 169.625-85.5 185-133h-96c-3.75 12.25-31.75 52-85 52-89.25 0-97-69.75-97-101h284c5.75-108-41.5-234-191-234zm-3 81c26.625 0 48.125 7.75 61 22 12.875 14.375 22.375 35.375 25 63H707c.5-7.625 2.25-16.375 5-26 2.75-9.875 7-19.25 14-28 7-8.625 16.75-16.125 28-22 11.5-6 25.75-9 43-9zm-635 89h141c28 0 94 4.375 94 85 0 78.125-83.125 78-96 78H162z"/></svg>