<svg viewBox="0 0 1024 1024.008" xmlns="http://www.w3.org/2000/svg"><path d="M240.768 344.277c-15.02 5.29-27.435 23.254-27.435 39.723 0 3.413 1.238 9.984 2.774 14.635 2.517 7.68 14.506 20.18 136.106 141.994 96.17 96.34 135.424 134.613 140.843 137.215 10.41 5.078 21.717 5.846 32.853 2.262 8.66-2.816 16-9.814 142.72-136.32 96.34-96.128 134.613-135.424 137.215-140.843a42.07 42.07 0 0 0-7.893-48.81c-11.904-11.905-27.947-15.53-44.587-10.027-7.637 2.517-18.986 13.312-124.885 118.997L512 579.37 395.52 463.105c-105.9-105.685-117.248-116.48-124.885-118.997a44.032 44.032 0 0 0-29.867.17"/></svg>