<svg viewBox="0 0 1024 1024" xmlns="http://www.w3.org/2000/svg"><path d="M798.165 286.165l-512 512q-12.5 12.502-30.165 12.502-17.664 0-30.165-12.502-12.502-12.5-12.502-30.165 0-17.664 12.502-30.165l512-512q12.5-12.502 30.165-12.502 17.664 0 30.165 12.502 12.502 12.5 12.502 30.165 0 17.664-12.502 30.165zm-512-60.33l512 512q12.502 12.5 12.502 30.165 0 17.664-12.502 30.165-12.5 12.502-30.165 12.502-17.664 0-30.165-12.502l-512-512q-12.502-12.5-12.502-30.165 0-17.664 12.502-30.165 12.5-12.502 30.165-12.502 17.664 0 30.165 12.502z"/></svg>