<svg xmlns="http://www.w3.org/2000/svg" width="32" height="32">
    <path style="stroke:none;fill-rule:nonzero;fill:#000;fill-opacity:1" d="M6.64.727C7.255.68 25.11.699 25.61.75a6.167 6.167 0 0 1 3.859 1.836c1.12 1.121 1.718 2.465 1.843 4.137.032.453.047 3.136.032 7.254-.024 7.125-.008 6.808-.332 7.796a6.677 6.677 0 0 1-2.215 3.098 7.587 7.587 0 0 1-1.621.883c-.985.355-.813.344-5.414.375l-4.188.031-4.582 2.281a832.354 832.354 0 0 1-4.597 2.278c-.012 0-.02-1.032-.02-2.293v-2.293h-.922c-1.324 0-1.969-.117-2.93-.535-1.918-.832-3.359-2.688-3.695-4.75-.121-.743-.121-14.145 0-14.836A6.373 6.373 0 0 1 5.281.969c.446-.121.899-.2 1.36-.242Zm19.122 2.601c-.5-.105-19.008-.101-19.496.004-1.34.297-2.477 1.375-2.864 2.719l-.12.43v6.933c0 6.484-.012 7.074.175 7.586l.102.25c.355.867 1.199 1.719 2.046 2.063.665.269.747.277 3.102.3l2.227.02v1.492c0 .816.007 1.488.02 1.488 1.01-.492 2.026-.992 3.034-1.492l3.016-1.496h4.047c2.222 0 4.219-.023 4.43-.05.859-.114 1.523-.446 2.171-1.095.45-.425.785-.957.977-1.546l.144-.426.016-6.883c.012-6.137.004-6.922-.07-7.3-.16-.794-.489-1.391-1.082-1.977-.575-.559-1.117-.856-1.875-1.02Zm-11.043 11.39V12.16h2.562v2.559Zm-6.344 0V12.16h2.504v2.559Zm12.746 0V12.16h2.504v2.559Zm0 0"/>
</svg>
