<svg viewBox="0 0 1024 1024.008" xmlns="http://www.w3.org/2000/svg"><path d="M154.453 43.733c-17.408 3.414-22.74 4.864-32 8.62-37.59 15.274-66.09 48.51-76.544 89.3-3.542 13.867-3.585 428.032 0 441.9 12.03 47.018 45.27 80.98 93.183 95.23 5.803 1.75 19.755 2.817 43.776 3.414 41.6 1.024 48.47-.384 60.33-12.245a41.984 41.984 0 0 0 .043-59.86c-10.838-10.84-18.56-12.76-51.243-12.76s-40.405-1.92-51.285-12.8c-13.654-13.652-12.843 1.24-12.33-225.364l.468-201.3 4.736-8.065c5.333-9.088 13.567-16 22.997-19.37 5.205-1.836 43.605-2.305 205.354-2.348 223.66-.085 209.025-.938 222.636 12.672 10.837 10.838 12.757 18.56 12.757 51.243s1.92 40.405 12.758 51.243a41.984 41.984 0 0 0 59.862-.043c11.86-11.86 13.27-18.73 12.245-60.33-.896-36.14-1.792-41.942-9.642-61.483-15.66-39.083-54.912-70.016-97.408-76.886-10.496-1.705-412.288-2.43-420.694-.767M453.12 342.4c-17.408 3.413-22.74 4.864-32 8.62-37.59 15.273-66.09 48.51-76.544 89.3-3.54 13.867-3.584 428.032 0 441.9 11.99 46.89 44.5 80.17 93.184 95.487 7.51 2.346 33.11 2.73 215.893 3.2 139.478.34 211.158-.043 219.008-1.28 50.817-7.808 92.46-46.25 105.43-97.28 3.542-13.91 3.542-428.118 0-441.9-13.098-51.07-53.93-89.172-104.277-97.28-10.496-1.706-412.288-2.43-420.693-.767m414.72 87.083c4.907 1.664 11.22 5.76 15.403 9.94 13.61 13.57 12.757-.938 12.757 221.91s.853 208.342-12.757 221.91c-13.568 13.61.938 12.757-221.91 12.757-222.89 0-208.298.853-221.952-12.8-13.652-13.653-12.84 1.237-12.33-225.365l.47-201.302 4.736-8.064c5.333-9.09 13.568-16 22.997-19.37 5.206-1.836 43.606-2.305 205.355-2.348 180.82-.085 199.68.17 207.232 2.73"/></svg>