<svg viewBox="0 0 1024 1024" xmlns="http://www.w3.org/2000/svg"><path d="M768 128v64h128v-64zm-320 96v64h128v-64zm320 0v64h128v-64zm-320 96v64h128v-64zm320 0v64h128v-64zm-320 96v64h128v-64zm320 0v64h128v-64zm-640 96v64h128v-64zm320 0v64h128v-64zm160 0v64h128v-64zm160 0v64h128v-64zm-640 96v64h128v-64zm160 0v64h128v-64zm160 0v64h128v-64zm160 0v64h128v-64zm160 0v64h128v-64zm-640 96v64h128v-64zm160 0v64h128v-64zm160 0v64h128v-64zm160 0v64h128v-64zm160 0v64h128v-64zm-640 96v64h128v-64zm160 0v64h128v-64zm160 0v64h128v-64zm160 0v64h128v-64zm160 0v64h128v-64z"/></svg>