<svg viewBox="0 0 1024 1024" xmlns="http://www.w3.org/2000/svg"><path d="M404.992 156.992L380 160s-112.128 12.256-194.016 78.016h-.992l-.992.992c-18.368 16.864-26.368 37.632-39.008 68-12.608 30.368-26.112 69.12-37.984 112C83.264 504.864 64 608.864 64 704v8l4 8c29.632 52 82.24 85.12 131.008 108 48.736 22.88 90.88 35.008 120 36l18.976.992L348 848l35.008-62.016C420.128 794.368 462.88 800 512 800c49.12 0 91.872-5.632 128.992-14.016L676 848l10.016 16.992 18.976-.992c29.12-.992 71.264-13.12 120-36C873.76 805.12 926.368 772 956 720l4-8v-8c0-95.136-19.264-199.136-43.008-284.992-11.872-42.88-25.376-81.632-37.984-112-12.64-30.368-20.64-51.136-39.008-68l-.992-.992h-.992C756.128 172.256 644 160 644 160l-24.992-3.008L609.984 180s-9.248 23.36-14.976 50.016C558.752 225.12 529.12 224 512 224c-17.12 0-46.752 1.12-83.008 6.016C423.264 203.36 414.016 180 414.016 180zm-44 73.024c1.376 4.48 2.752 8.352 4 11.968-41.376 10.272-85.504 25.888-125.984 51.008l33.984 54.016C356 295.488 475.264 288 512 288c36.736 0 156 7.488 239.008 59.008l33.984-54.016c-40.48-25.12-84.608-40.736-125.984-51.008 1.248-3.616 2.624-7.488 4-11.968 29.856 5.984 86.88 19.744 133.984 56.992-.256.128 12 18.624 23.008 44.992 11.264 27.136 23.744 63.264 35.008 104 21.632 78.112 38.624 173.248 40 256.992-20.128 30.752-57.504 58.496-96.992 76.992C763.488 786.112 736.256 792 720 795.008L704 768c9.504-3.488 18.88-7.36 27.008-11.008 49.248-21.632 76-44.992 76-44.992l-42.016-48s-17.984 16.512-60 35.008C663.008 717.504 598.88 736 512 736s-151.008-18.496-192.992-36.992c-42.016-18.496-60-35.008-60-35.008l-42.016 48s26.752 23.36 76 44.992c8.128 3.648 17.504 7.52 27.008 11.008l-16 27.008c-16.256-3.008-43.488-8.896-78.016-25.024-39.488-18.496-76.864-46.24-96.992-76.992 1.376-83.744 18.368-178.88 40-256.992 11.264-40.736 23.744-76.864 35.008-104 11.008-26.368 23.264-44.864 23.008-44.992C274.112 249.76 331.136 236 360.992 230.016zM400 448c-24.736 0-46.624 14.112-60 32-13.376 17.888-20 39.872-20 64s6.624 46.112 20 64c13.376 17.888 35.264 32 60 32 24.736 0 46.624-14.112 60-32 13.376-17.888 20-39.872 20-64s-6.624-46.112-20-64c-13.376-17.888-35.264-32-60-32zm224 0c-24.736 0-46.624 14.112-60 32-13.376 17.888-20 39.872-20 64s6.624 46.112 20 64c13.376 17.888 35.264 32 60 32 24.736 0 46.624-14.112 60-32 13.376-17.888 20-39.872 20-64s-6.624-46.112-20-64c-13.376-17.888-35.264-32-60-32zm-224 64c1.76 0 4 .64 8 6.016 4 5.344 8 14.72 8 25.984 0 11.264-4 20.64-8 25.984-4 5.376-6.24 6.016-8 6.016-1.76 0-4-.64-8-6.016-4-5.344-8-14.72-8-25.984 0-11.264 4-20.64 8-25.984 4-5.376 6.24-6.016 8-6.016zm224 0c1.76 0 4 .64 8 6.016 4 5.344 8 14.72 8 25.984 0 11.264-4 20.64-8 25.984-4 5.376-6.24 6.016-8 6.016-1.76 0-4-.64-8-6.016-4-5.344-8-14.72-8-25.984 0-11.264 4-20.64 8-25.984 4-5.376 6.24-6.016 8-6.016z"/></svg>