<svg viewBox="0 0 1024 1027.25" xmlns="http://www.w3.org/2000/svg"><path d="M512 128c-211.75 0-384 172.25-384 384s172.25 384 384 384 384-172.25 384-384-172.25-384-384-384zm0 64c81.125 0 154.625 30.5 211 80-6 8.375-14.125 18.5-27 31-27.375 26.5-71.125 58.375-138 83-45.25-83.625-89.625-146.5-119-186 23.375-5.375 47.875-8 73-8zm-136 30c26.25 34.375 73 98.125 120 183-130.125 34.5-249.5 38.875-297 39 21.25-98.875 87.75-180.25 177-222zm391 97c39 51.625 63.25 115.5 65 185-28.5-6.375-70.5-12.625-125-13-28.375-.125-60.5 1.875-95 6-8-18.25-16.625-35.875-25-53 71.75-27.5 120.625-63.75 153-95 11-10.75 19.625-20.625 27-30zM525 463c7.375 14.875 14.875 30.125 22 46-136.75 37.875-235 153.875-277 212-48.375-56-78-129-78-209v-4c43.25.5 180.75-2.5 333-45zm182 91c57.125 0 96.625 8 120 14-14.875 85.25-63 158.375-131 206-12.75-76.5-33.75-149.25-59-216 25.25-2.5 49.125-4 70-4zm-135 15c28.75 73 52.875 153.125 65 238-38.25 16.125-80.75 25-125 25-73.375 0-141.125-24.625-195-66 32.875-45 129.5-164.75 255-197z"/></svg>