<svg xmlns="http://www.w3.org/2000/svg" width="32" height="32">
    <path style="stroke:none;fill-rule:evenodd;fill:#000;fill-opacity:1" d="M19.227 1.367a8.33 8.33 0 0 0-2.903.875c-2.148 1.11-3.664 3.117-4.176 5.54-.093.44-.109.769-.132 2.366L11.988 12h-1.425c-1.641 0-1.793.027-2.165.398C7.996 12.801 8 12.766 8 16s-.004 3.2.398 3.602c.372.37.524.398 2.172.398H12v4.766c0 5.359-.02 5.082.398 5.504.403.402.368.398 3.602.398s3.2.004 3.602-.398c.418-.422.398-.145.398-5.504V20h1.43c1.574 0 1.742-.023 2.101-.32.125-.11.227-.242.301-.387.133-.273 1.5-5.727 1.5-5.977 0-.304-.164-.683-.398-.918-.387-.39-.45-.398-2.836-.398H20V9.332h2.098c2.386 0 2.449-.008 2.836-.398.402-.403.398-.364.398-3.602 0-3.234.004-3.2-.398-3.602-.395-.394-.414-.398-3.145-.39-.852 0-1.707.008-2.562.027m3.441 3.965v1.336h-1.465c-.863 0-1.582.023-1.746.059a2.75 2.75 0 0 0-2.066 2.062c-.036.18-.059 1.09-.059 2.512 0 2.531.008 2.574.398 2.969.387.382.473.398 2.657.398 1.511 0 1.914.012 1.894.066a46.08 46.08 0 0 0-.34 1.332l-.312 1.266H20.05c-1.813 0-1.942.023-2.32.398-.419.422-.399.145-.399 5.504V28h-2.664v-4.766c0-5.359.02-5.082-.398-5.504-.372-.367-.528-.398-2.172-.398h-1.43v-2.664h1.43c1.574 0 1.742-.027 2.101-.324a1.47 1.47 0 0 0 .317-.41c.125-.254.125-.266.152-2.84.031-2.57.031-2.59.168-3.098a5.404 5.404 0 0 1 2.816-3.45c.88-.444 1.457-.534 3.426-.542L22.668 4v1.332"/>
</svg>
