<svg viewBox="0 0 1024 1024" xmlns="http://www.w3.org/2000/svg"><path d="M256 160c-52.64 0-96 43.36-96 96v512c0 52.64 43.36 96 96 96h512c52.64 0 96-43.36 96-96V256c0-52.64-43.36-96-96-96zm0 64h512c18.112 0 32 13.888 32 32v512c0 18.112-13.888 32-32 32H256c-18.112 0-32-13.888-32-32V256c0-18.112 13.888-32 32-32zm112 176c-61.888 0-112 50.112-112 112s50.112 112 112 112 112-50.112 112-112-50.112-112-112-112zm288 0c-61.888 0-112 50.112-112 112s50.112 112 112 112 112-50.112 112-112-50.112-112-112-112z"/></svg>