<svg xmlns="http://www.w3.org/2000/svg" width="32" height="32">
    <path style="stroke:none;fill-rule:nonzero;fill:#000;fill-opacity:1" d="M0 16C0 7.164 7.164 0 16 0s16 7.164 16 16-7.164 16-16 16S0 24.836 0 16ZM15 2.152c-1.34.41-2.672 1.641-3.773 3.711-.286.535-.551 1.121-.79 1.746A25.72 25.72 0 0 0 15 8.184ZM8.496 7.078c.285-.77.61-1.488.965-2.156.344-.652.746-1.277 1.191-1.867a14.095 14.095 0 0 0-4.55 3.047c.722.367 1.527.695 2.394.976ZM7.02 15c.07-2.14.375-4.176.87-6.016a18.123 18.123 0 0 1-3.128-1.336A13.951 13.951 0 0 0 2.035 15Zm2.796-5.48A24.72 24.72 0 0 0 9.02 15H15v-4.816a27.476 27.476 0 0 1-5.184-.664Zm7.184.66V15h5.98a24.72 24.72 0 0 0-.796-5.48 27.476 27.476 0 0 1-5.184.664ZM9.02 17c.07 1.973.351 3.828.796 5.48A27.566 27.566 0 0 1 15 21.82V17ZM17 17v4.816c1.82.063 3.566.293 5.184.664.445-1.652.726-3.507.796-5.48Zm-6.563 7.39c.239.626.504 1.212.79 1.747 1.101 2.07 2.433 3.3 3.773 3.71V23.82a25.016 25.016 0 0 0-4.563.575Zm.22 4.555c-.45-.59-.852-1.215-1.196-1.867a17.455 17.455 0 0 1-.965-2.156c-.82.262-1.621.59-2.394.976a14.095 14.095 0 0 0 4.55 3.047Zm-2.766-5.93A26.758 26.758 0 0 1 7.016 17h-4.98a13.951 13.951 0 0 0 2.726 7.352 18.166 18.166 0 0 1 3.129-1.336Zm13.457 5.93a14.026 14.026 0 0 0 4.547-3.043c-.77-.386-1.57-.715-2.391-.98-.274.738-.594 1.46-.965 2.156a13.737 13.737 0 0 1-1.191 1.867ZM17 23.816v6.032c1.34-.41 2.672-1.641 3.773-3.711.286-.535.551-1.121.79-1.746A25.26 25.26 0 0 0 17 23.82Zm7.11-.8c1.14.37 2.19.82 3.128 1.336A13.951 13.951 0 0 0 29.965 17h-4.98a26.758 26.758 0 0 1-.876 6.016ZM29.964 15a13.951 13.951 0 0 0-2.727-7.352c-.937.516-1.988.965-3.129 1.336.496 1.84.801 3.875.875 6.016ZM22.539 4.922c.356.668.68 1.387.965 2.156.82-.266 1.621-.594 2.39-.98a14.015 14.015 0 0 0-4.546-3.04c.433.567.836 1.196 1.191 1.864Zm-.977 2.687a15.217 15.217 0 0 0-.789-1.746c-1.101-2.07-2.433-3.3-3.773-3.71V8.18a25.016 25.016 0 0 0 4.563-.575Zm0 0"/>
</svg>
