<svg viewBox="0 0 1024 1027" xmlns="http://www.w3.org/2000/svg"><path d="M367 160c-113.625 0-207 93.25-207 207v290c0 113.625 93.25 207 207 207h290c113.625 0 207-93.25 207-207V367c0-113.625-93.25-207-207-207zm0 64h290c79.125 0 143 63.875 143 143v290c0 79.125-63.875 143-143 143H367c-79.125 0-143-63.875-143-143V367c0-79.125 63.875-143 143-143zm334 70c-16.125 0-29 12.875-29 29s12.875 29 29 29 29-12.875 29-29-12.875-29-29-29zm-189 26c-105.625 0-192 86.375-192 192s86.375 192 192 192 192-86.375 192-192-86.375-192-192-192zm0 64c71.125 0 128 56.875 128 128s-56.875 128-128 128-128-56.875-128-128 56.875-128 128-128z"/></svg>