<svg viewBox="0 0 1024 1024" xmlns="http://www.w3.org/2000/svg"><path d="M160 160v704h704V160H160zm64 64h576v576H224V224zm212.256 128C402.56 352 384 377.856 384 410.112v202.144c0 33.696 17.888 59.488 52.864 59.488 28.064 0 51.2-18.24 51.2-59.488v-54.56l79.072 98.816c16.064 19.456 50.912 21.92 72.864 0 19.072-19.712 19.296-48 5.184-65.76l-64.064-82.016 50.304-77.376c12.288-17.632 12.48-44.992-7.232-64.032-21.408-20.768-58.272-22.624-80.192 9.12l-55.936 85.184V410.88c0-40.096-22.944-58.88-51.808-58.88z"/></svg>