<svg viewBox="0 0 1024 1024" xmlns="http://www.w3.org/2000/svg"><path d="M308 160c-81.12 0-148 66.88-148 148v408c0 81.12 66.88 148 148 148h408c81.12 0 148-66.88 148-148V308c0-81.12-66.88-148-148-148zm0 64h408c46.496 0 84 37.504 84 84v408c0 46.496-37.504 84-84 84H308c-46.496 0-84-37.504-84-84V308c0-46.496 37.504-84 84-84zm204 71.008c-128.512 0-232.992 84.736-232.992 188.992 0 93.504 82.976 171.264 194.976 186.016 7.648 1.6 17.376 5.472 20.032 11.968 2.368 5.888 1.728 15.008.992 21.024 0 0-2.368 16.48-3.008 20-.992 5.856-4.864 23.488 20 12.992 24.864-10.496 134.112-79.744 183.008-136 33.728-36.992 49.984-74.24 49.984-116 0-104.256-104.48-188.992-232.992-188.992zM375.008 428.992c6.752 0 12 5.248 12 12v80h33.984c6.752 0 12 6.272 12 13.024 0 6.72-5.248 11.968-12 11.968h-45.984c-6.752 0-13.024-5.248-13.024-11.968v-93.024c0-6.752 6.272-12 13.024-12zm81.984 0c6.752 0 12 5.248 12 12v93.024c0 6.72-5.248 11.968-12 11.968S444 540.736 444 534.016v-93.024c0-6.752 6.24-12 12.992-12zm38.016 0c1.248-.352 2.752 0 4 0 3.744 0 6.752 1.888 8.992 4.992l48 64v-56.992c0-6.752 5.248-12 12-12s12 5.248 12 12v93.024c0 5.248-3.008 9.344-8 10.976-1.248.384-2.752.992-4 .992-3.744 0-7.744-1.856-9.984-4.992L511.008 476v58.016c0 6.72-5.248 11.968-12 11.968s-12.992-5.248-12.992-11.968v-93.024c0-5.248 3.968-10.368 8.992-12zm113.984 0h46.016c6.752 0 12 5.248 12 12s-5.248 12-12 12h-34.016v22.016h34.016c6.752 0 12 5.248 12 12S661.76 500 655.008 500h-34.016v20.992h34.016c6.752 0 12 6.272 12 13.024 0 6.72-5.248 11.968-12 11.968h-46.016c-6.752 0-12-5.248-12-11.968v-93.024c0-6.752 5.248-12 12-12z"/></svg>