<svg xmlns="http://www.w3.org/2000/svg" width="32" height="32">
    <path style="stroke:none;fill-rule:nonzero;fill:#000;fill-opacity:1" d="M16 1.332c-4.434 0-8 3.57-8 8v1.336c-1.457 0-2.668 1.207-2.668 2.664v13.336c0 1.457 1.211 2.664 2.668 2.664h16c1.457 0 2.668-1.207 2.668-2.664V13.332c0-1.457-1.211-2.664-2.668-2.664V9.332c0-4.43-3.566-8-8-8ZM16 4c3.035 0 5.332 2.297 5.332 5.332v1.336H10.668V9.332C10.668 6.297 12.965 4 16 4Zm-8 9.332h16v13.336H8Zm8 4A2.68 2.68 0 0 0 13.332 20 2.68 2.68 0 0 0 16 22.668 2.68 2.68 0 0 0 18.668 20 2.68 2.68 0 0 0 16 17.332Zm0 0"/>
</svg>
