<svg xmlns="http://www.w3.org/2000/svg" width="32" height="32">
    <path style="stroke:none;fill-rule:evenodd;fill:#000;fill-opacity:1" d="M4.672 4.055c-1.527.261-2.844 1.496-3.238 3.039-.11.437-.11 17.375 0 17.812a4.065 4.065 0 0 0 2.164 2.664c.293.145.668.293.828.332.445.11 22.722.106 23.144-.004a4 4 0 0 0 2.004-1.187c.32-.34.461-.547.664-.973.14-.297.293-.672.328-.832.059-.238.075-1.883.075-8.906 0-7.023-.016-8.668-.075-8.906a5.261 5.261 0 0 0-.328-.832c-.418-.867-1.191-1.61-2.039-1.95-.762-.304.192-.28-12.039-.292-6.176-.004-11.344.011-11.488.035m22.45 2.699c.273.094.741.508.706.621-.02.063-11.758 8.305-11.824 8.305-.067 0-11.809-8.242-11.828-8.305-.04-.105.43-.527.68-.617.21-.074 1.406-.082 11.12-.086 10-.004 10.907 0 11.145.082m-17.187 7.96c2.98 2.087 5.523 3.833 5.644 3.876.262.094.55.098.817.012.136-.043 2.351-1.559 5.914-4.051L28 10.566v6.813c0 7.66.027 7.129-.398 7.555-.434.433.59.398-11.602.398-12.191 0-11.168.035-11.602-.398-.425-.426-.398.105-.398-7.563v-6.82l.254.183c.137.102 2.695 1.891 5.68 3.98"/>
</svg>
