<svg viewBox="0 0 1024 1024" xmlns="http://www.w3.org/2000/svg"><path d="M510.016 128.992c-96.672.384-192.64 12.672-242.592 35.68 0 0-107.424 48.928-107.424 215.52 0 198.304-.16 447.328 177.984 495.488 68.224 18.336 126.912 22.304 174.08 19.584C597.664 890.432 640 864.192 640 864.192l-2.88-63.264s-55.488 19.552-124.192 17.312c-68.064-2.4-139.744-7.488-150.944-92.48-1.024-7.904-1.504-15.904-1.472-23.872 144.224 35.808 267.2 15.584 301.056 11.488 94.528-11.488 176.8-70.752 187.296-124.928 16.448-85.376 15.072-208.256 15.072-208.256 0-166.592-107.264-215.52-107.264-215.52-52.64-24.576-150.016-36.064-246.656-35.68zM406.56 256.064c33.12.896 65.856 15.712 86.016 47.008l19.488 33.12 19.424-33.12c40.48-62.944 131.232-59.04 174.4-10.336C745.696 339.072 736.8 368.992 736.8 576v.064h-78.304V395.936c0-84.32-107.488-87.584-107.488 11.68V512h-77.824V407.616c0-99.264-107.424-96.064-107.424-11.744V576h-78.496c0-207.168-8.736-237.28 30.912-283.264 21.76-24.512 55.264-37.568 88.384-36.672z"/></svg>