<svg viewBox="0 0 1024 1024.008" xmlns="http://www.w3.org/2000/svg"><path d="M193.45 429.1C156.033 438.143 128 473.684 128 512c0 46.08 39.253 85.333 85.333 85.333 22.315 0 43.392-8.96 59.904-25.43 33.963-34.004 33.963-85.802 0-119.807A84.01 84.01 0 0 0 193.45 429.1m298.667 0c-37.418 9.044-65.45 44.585-65.45 82.9 0 46.08 39.253 85.333 85.333 85.333S597.333 558.08 597.333 512c0-46.763-39.85-85.888-86.698-85.205a99.925 99.925 0 0 0-18.518 2.304m298.667 0c-37.42 9.044-65.45 44.585-65.45 82.9 0 46.08 39.253 85.333 85.333 85.333S896 558.08 896 512c0-46.763-39.85-85.888-86.7-85.205a99.925 99.925 0 0 0-18.516 2.304"/></svg>