<svg viewBox="0 0 1024 1027" xmlns="http://www.w3.org/2000/svg"><path d="M515 128c-162.464 0-323 108.267-323 283.563 0 111.456 62.672 174.812 100.688 174.812 15.68 0 24.75-43.71 24.75-56.063 0-14.72-37.563-46.095-37.563-107.375 0-127.296 96.904-217.5 222.313-217.5 107.84 0 187.625 61.237 187.625 173.813 0 84.064-33.752 241.75-143 241.75-39.424 0-73.125-28.48-73.125-69.313 0-59.84 38.312-117.802 38.312-179.562 0-104.832-145.188-85.813-145.188 40.875 0 26.592 3.316 56.026 15.188 80.25-21.824 94.048-62 243.947-62 340.875 0 29.92 4.277 59.36 7.125 89.313 5.376 6.015 2.714 5.383 10.938 2.375 79.808-109.25 72.404-140.4 108.5-283.375 19.488 37.056 69.846 57 109.75 57 168.16 0 243.687-163.88 243.687-311.625C800 230.596 664.152 128 515 128z"/></svg>