<svg viewBox="0 0 1024 1027" xmlns="http://www.w3.org/2000/svg"><path d="M597 128c-67.125 0-117 54.625-117 117v108c-88.25 4.625-168.25 28-233 65-24.75-23.875-57.75-34-90-34-34.875 0-70.375 11.375-95 39v1l-1 1c-23.625 29.5-33.25 68.875-27 108 5.75 35.875 26.75 72.375 63 96-.25 3.625-1 7.25-1 11 0 83.375 50.375 156.375 126 207s177.625 81 290 81 214.375-30.375 290-81 126-123.625 126-207c0-3.75-.75-7.375-1-11 36.25-23.625 57.25-60.125 63-96 6.25-39.125-3.375-78.5-27-108l-1-1c-24.625-27.625-60.125-40-95-40-32.25 0-65.25 10.125-90 34-64.75-37-144.75-60.375-233-65V245c0-31.375 17.875-53 53-53 16.625 0 37.25 7.875 69 19 27 9.5 62 20 107 23 10.875 31.25 40.25 54 75 54 44 0 80-36 80-80s-36-80-80-80c-30.25 0-56.375 17.125-70 42-38.375-2.25-66.125-10.25-91-19-28.875-10.125-55.5-23-90-23zm-85 288c100.875 0 190.875 27.75 254 70s98 96.5 98 154-34.875 111.75-98 154-153.125 70-254 70-190.875-27.75-254-70-98-96.5-98-154 34.875-111.75 98-154 153.125-70 254-70zm-355 32c12.125 0 24.125 3 34 8-34.75 29.125-61.75 63.75-78 102-8.125-10.25-13-22.5-15-35-3.5-21.5 2.75-43.75 13-57 .125-.25-.125-.75 0-1 9.75-10.25 27-17 46-17zm710 0c19 0 36.25 6.75 46 17 .125.125-.125.875 0 1 10.25 13.25 16.5 35.5 13 57-2 12.5-6.875 24.75-15 35-16.25-38.25-43.25-72.875-78-102 9.875-5 21.875-8 34-8zm-515 64c-35.375 0-64 28.625-64 64s28.625 64 64 64 64-28.625 64-64-28.625-64-64-64zm320 0c-35.375 0-64 28.625-64 64s28.625 64 64 64 64-28.625 64-64-28.625-64-64-64zm8 177c-36.75 34.125-98.5 56-168 56s-131.25-22.125-168-52c20.5 55.5 86.25 107 168 107s147.5-51.25 168-111z"/></svg>