<svg viewBox="0 0 1024 1024" xmlns="http://www.w3.org/2000/svg"><path d="M443.733 102.4C255.625 102.4 102.4 255.625 102.4 443.733c0 188.11 153.225 341.334 341.333 341.334 81.818 0 156.91-29.048 215.79-77.278l203.81 203.81a34.133 34.133 0 1 0 48.266-48.266l-203.81-203.81c48.23-58.88 77.277-133.973 77.277-215.79 0-188.11-153.225-341.334-341.334-341.334zm0 68.267c151.21 0 273.067 121.856 273.067 273.066 0 151.21-121.856 273.067-273.067 273.067-151.21 0-273.066-121.856-273.066-273.067 0-151.21 121.856-273.066 273.066-273.066z"/></svg>