<svg viewBox="0 0 1024 1027" xmlns="http://www.w3.org/2000/svg"><path d="M502 128c-18.875.125-55.625 3.125-97 21-42.125 18.125-87.75 53-116 115-22.25 48.875-15.5 109.875-12 160-5.125-1-9.375-.5-17-4-7.375-3.375-14.75-5-22-5-13 0-24.125 3.5-35 10s-23.5 17-27 35c-2.125 11.25 1.125 28 11 40s24.5 20.5 44 28c4.625 1.75 8.125 3.75 12 5 8.25 2.5 17.25 5 23 8s6.625 5.375 6 4c-.125 1.125-.875 3.875-3 8l-1 1c-.875 1.875-46.125 100.25-138 115-19.875 3.125-35.125 21.375-34 42 .375 5.625 2.125 10.625 4 15 7.125 16.375 21.25 26.875 40 35 15.125 6.5 39.375 11.125 66 16 .5 1.75.5 1.625 1 4 1.25 5.625 2.75 12.75 5 20 2.875 9.5 10.625 19.875 20 25s17.5 5 22 5c9.625 0 15.625-1.75 22-3 10.5-2 21.875-4 37-4 8.375 0 18 .5 27 2 12.5 2 26.5 11.5 46 25 28.25 19.5 66 45 121 45h2c1.625 0 3.75.125 5 0h3c55 0 92.625-25.5 121-45 19.5-13.375 34.5-23 47-25 9-1.5 17.625-2 26-2 14.875 0 25.5 1.875 37 4 8 1.5 14.375 3 22 3h1c7.375 0 17.625-2 26-8s12.875-15.75 15-23c2.125-7.125 3.625-13.125 5-19 .5-2.5.5-2.25 1-4 26.625-4.875 50.875-9.5 66-16 18.75-8.125 32.875-18.625 40-35 1.875-4.5 3.625-9.5 4-15 1.125-20.25-13.5-38.75-33-42h-1c-46-7.375-79.625-34.125-103-61s-35.125-53.375-35-53c-.25-.375-1-2-1-2-2.125-4.125-2.875-6.875-3-8-.625 1.375.25-1 6-4s14.75-5.5 23-8c4.125-1.25 8.375-3.25 13-5 17.125-6.625 29.25-13.125 39-23s16.25-24.625 16-37c-.5-26.5-20-41.125-39-48-.125 0 .125-1 0-1-.375-.125-.625.125-1 0-8-3.125-15.625-4-24-4-5.75 0-14.25.125-25 5-5.5 2.5-8.75 1.875-13 3 3.5-49.875 10.25-110.375-12-159-28.25-62-73.75-97.75-116-116s-80.5-20-99-20h-2-14c-.25 0 .875-.25-2 0zm2 64h16c12.75 0 42.125 1.75 73 15s62.5 37 84 84c9.875 21.75 10.375 84.875 7 136l-1 2c-.5 7.125-.625 14.25-1 21-.5 8.875 2.75 17.625 9 24 3.75 3.75 18.375 10.5 34 14-11.625 6.625-24.75 15.25-32 32-8 18.5-4.375 37.75 3 55 .25 1 .625 2 1 3 .125.25-.125.75 0 1v1c.25.375.75.625 1 1 2.5 5.75 15.75 35.375 45 69 19.5 22.375 48.625 43.25 83 60-10.875 2.75-15.75 5.375-33 8-15.5 2.375-27.25 16.375-31 25-3.5 7.875-4.375 14.625-6 22-12.5-2.25-26.5-5-45-5-12 0-24.875 1-37 3-30.875 5-52.625 21.625-72 35-28.5 19.5-49 34-85 34-1.25 0-2.5.125-4 0-1.375-.125-2.625-.125-4 0h-2c-36 0-56.75-14.5-85-34-19.5-13.375-41-30-72-35-12.125-2-25-3-37-3-19.375 0-33.25 2-44 4-1.375-6.375-2.875-12.625-6-20-3.625-8.5-14.75-23.375-32-26-16.75-2.5-21.25-5.25-32-8 84.25-40.75 123.25-119.5 127-128v-1c0-.125.875-.75 1-1 .5-.875 1.125-1.5 2-5l-2-1c7.125-17.25 12-35.75 4-54-7.5-17.25-21.125-26.375-33-33 14.875-3.125 29.75-7.625 35-13 6.25-6.375 9.5-15.125 9-24-.375-7.5-.5-15-1-23-3.25-51.25-3.875-114.25 6-136 21.5-47 53.25-70.75 84-84s60.375-15 73-15z"/></svg>