<svg viewBox="0 0 1024 1024" xmlns="http://www.w3.org/2000/svg"><path d="M512 128c-212.128 0-384 171.872-384 384s171.872 384 384 384 384-171.872 384-384-171.872-384-384-384zm0 64c177.76 0 320 142.24 320 320S689.76 832 512 832 192 689.76 192 512s142.24-320 320-320zm-51.008 152c-62.24 0-116.48 5.76-168 22.016-13.632 2.72-24.992 12.992-24.992 32 0 18.976 13.984 35.744 32.992 32.992 8.128 0 13.632-3.008 19.008-3.008 43.36-10.88 92.256-16 140.992-16 94.752 0 192 21.12 257.024 59.008 8.096 2.752 10.848 5.984 18.976 5.984C756 476.992 769.248 463.008 772 444c0-16.256-8.128-26.624-19.008-32-81.248-45.984-189.12-68-292-68zM452 463.008c-56.864 0-97.376 8.128-138.016 18.976-13.472 5.376-20.992 13.76-20.992 30.016 0 13.504 10.752 27.008 27.008 27.008 5.504 0 7.872-.256 16-3.008 29.76-8.128 70.624-12.992 113.984-12.992 89.376 0 167.136 21.728 224 56.992 5.376 2.752 10.88 4.992 19.008 4.992 16.256 0 27.008-13.728 27.008-29.984 0-10.88-5.12-21.632-16-27.008-70.368-43.36-159.872-64.992-252-64.992zM460.992 580c-45.984 0-89.632 5.12-132.992 16-10.88 2.752-19.008 10.496-19.008 24 0 10.88 8.512 21.984 22.016 21.984 2.752 0 10.624-2.976 16-2.976 35.232-8.128 73.12-13.024 110.976-13.024 67.648 0 129.504 16.256 181.024 46.016 5.504 2.752 11.616 4.992 16.992 4.992 10.88 0 21.248-8.128 24-19.008 0-13.6-5.888-18.624-14.016-24C606.368 598.752 536.736 580 460.992 580z"/></svg>