<svg xmlns="http://www.w3.org/2000/svg" width="24" height="24" fill="none" stroke="currentColor" stroke-width="2" stroke-linecap="round" stroke-linejoin="round" class="feather feather-sun"><path d="M11.643.069a1.066 1.066 0 0 0-.577.591c-.098.288-.098 2.392 0 2.68.126.369.538.66.934.66s.808-.291.934-.66c.098-.288.098-2.392 0-2.68-.173-.508-.762-.778-1.291-.591M3.767 3.344c-.342.17-.527.482-.527.887 0 .393.098.533 1.029 1.454.712.706.859.832 1.028.889.388.13.765.046 1.044-.233s.363-.656.233-1.044c-.056-.169-.185-.317-.89-1.032-.925-.937-1.049-1.024-1.466-1.025a.89.89 0 0 0-.451.104m15.569-.005c-.141.071-.435.338-1.021.93-.706.712-.832.859-.889 1.028-.13.388-.046.765.233 1.044s.656.363 1.044.233c.169-.057.316-.183 1.028-.889.931-.921 1.029-1.061 1.029-1.454 0-.582-.405-.99-.982-.991a.89.89 0 0 0-.442.099M11.42 6.024c-.917.131-1.498.307-2.176.657-1.645.851-2.787 2.394-3.151 4.259-.097.499-.097 1.621 0 2.12.115.591.296 1.116.569 1.653.835 1.646 2.321 2.774 4.178 3.172.606.13 1.714.13 2.32 0 1.84-.394 3.315-1.504 4.156-3.126.273-.525.44-.994.569-1.599.075-.35.09-.544.09-1.16 0-.616-.015-.81-.09-1.16-.521-2.433-2.327-4.24-4.721-4.724-.37-.075-1.463-.133-1.744-.092m1.582 2.108c1.427.37 2.519 1.484 2.889 2.948.122.483.122 1.357 0 1.84a4.036 4.036 0 0 1-1.7 2.416 3.862 3.862 0 0 1-2.011.65c-1.126.059-2.181-.351-3.001-1.166a3.924 3.924 0 0 1-1.05-1.818c-.089-.332-.103-.463-.103-1.002 0-.539.014-.67.103-1.002A4.046 4.046 0 0 1 10.24 8.41c.797-.404 1.859-.511 2.762-.278M.643 11.069C.291 11.193 0 11.614 0 12c0 .396.291.808.66.934.163.055.378.066 1.34.066 1.316 0 1.421-.018 1.701-.299a.984.984 0 0 0 0-1.402c-.282-.282-.383-.299-1.718-.296-.945.003-1.196.015-1.34.066m20 0c-.352.124-.643.545-.643.931 0 .396.291.808.66.934.163.055.378.066 1.34.066 1.316 0 1.421-.018 1.701-.299a.984.984 0 0 0 0-1.402c-.282-.282-.383-.299-1.718-.296-.945.003-1.196.015-1.34.066M5.28 17.429c-.145.05-.34.221-1.012.886-.972.963-1.047 1.075-1.022 1.519.031.533.384.889.912.919.459.026.547-.033 1.511-1.006.721-.727.848-.875.905-1.044.13-.388.046-.765-.233-1.044a1.003 1.003 0 0 0-1.061-.23m12.723 0c-.352.124-.643.545-.643.931 0 .08.03.234.066.343.057.169.183.316.889 1.028.927.936 1.059 1.029 1.463 1.029.577-.001.982-.409.982-.991 0-.393-.098-.533-1.029-1.454-.712-.706-.859-.832-1.028-.889a1.026 1.026 0 0 0-.7.003m-6.36 2.64a1.066 1.066 0 0 0-.577.591c-.098.288-.098 2.392 0 2.68.126.369.538.66.934.66s.808-.291.934-.66c.098-.288.098-2.392 0-2.68-.173-.508-.762-.778-1.291-.591" fill="currentColor" fill-rule="evenodd" stroke="none"/></svg>