<svg viewBox="0 0 1024 1027" xmlns="http://www.w3.org/2000/svg"><path d="M834.25 127.875c-10.75.5-20.875 3.625-29.875 7.125h-.125c-9.125 3.625-52.5 21.875-118.375 49.5C620 212.25 534.5 248.25 449.625 284 280.125 355.375 113.5 425.625 113.5 425.625l2-.75s-11.5 3.75-23.5 12c-6.125 4-12.875 9.5-18.75 18.125s-10.625 21.875-8.875 35.5c2.875 23.125 17.875 37 28.625 44.625 10.875 7.75 21.25 11.375 21.25 11.375h.25l156.25 52.625c7 22.5 47.625 156 57.375 186.75 5.75 18.375 11.375 29.875 18.375 38.625 3.375 4.5 7.375 8.25 12.125 11.25 1.875 1.125 3.875 2 5.875 2.75.625.375 1.25.5 2 .625l-1.625-.375c.5.125.875.5 1.25.625 1.25.375 2.125.5 3.75.75 24.75 7.5 44.625-7.875 44.625-7.875l1.125-.875 92.25-84L662.5 866l3.5 1.5c32.25 14.125 64.875 6.25 82.125-7.625C765.5 845.875 772.25 828 772.25 828l1.125-2.875L892.875 213c3.375-15.125 4.25-29.25.5-43s-13.375-26.625-25-33.5c-11.75-7-23.375-9.125-34.125-8.625zM831 193.5c-.125 2 .25 1.75-.625 5.625v.375L712 805.25c-.5.875-1.375 2.75-3.75 4.625-2.5 2-4.5 3.25-14.875-.875L504.25 664 390 768.125l24-153.25s296.25-276.125 309-288 8.5-14.375 8.5-14.375c.875-14.5-19.25-4.25-19.25-4.25L322.625 549.625 322.5 549l-186.75-62.875V486c-.125 0-.375-.125-.5-.125.125 0 1-.375 1-.375l1-.5 1-.375S305 414.375 474.5 343c84.875-35.75 170.375-71.75 236.125-99.5 65.75-27.625 114.375-47.875 117.125-49 2.625-1 1.375-1 3.25-1z"/></svg>