<svg viewBox="0 0 1024 1024" xmlns="http://www.w3.org/2000/svg"><path d="M307.552 160C226.464 160 160 226.464 160 307.552v408.896C160 797.536 226.464 864 307.552 864h408.896C797.536 864 864 797.536 864 716.448V307.552C864 226.464 797.536 160 716.448 160H307.552zm0 64h408.896C762.944 224 800 261.056 800 307.552v408.896C800 762.944 762.944 800 716.448 800H307.552C261.056 800 224 762.944 224 716.448V307.552C224 261.056 261.056 224 307.552 224zM544 288v320c0 35.744-28.256 64-64 64s-64-28.256-64-64 28.256-64 64-64v-64c-70.304 0-128 57.696-128 128s57.696 128 128 128 128-57.696 128-128V412.448c26.496 20.512 57.888 35.04 93.696 35.552l.928-64C649.952 383.264 608 340.928 608 288h-64z"/></svg>