<svg viewBox="0 0 1024 1024" xmlns="http://www.w3.org/2000/svg"><path d="M927.584 324.256Q922.016 452.832 764.768 667.2 598.624 896 473.952 896q-89.824 0-143.776-152.736l-.48-1.312-31.232-121.44-31.072-120.8q-22.656-86.24-36.672-103.2-2.496 2.528-5.408 5.632-8.96 9.44-17.216 18.912L184.576 448l-84.352-92.032 12.384-20.512Q237.952 128 356 128q114.976 0 139.904 167.552 22.208 148.8 30.528 183.84l.096.448.096.448Q546.496 576 552 576q8.064 0 45.152-61.984 36.8-62.432 42.848-131.296-.32-30.72-16-30.72-14.208 0-19.392 10.304l-58.56-25.536q78.304-208.832 238.048-208.608h.96q75.424 2.368 112.48 56.416 33.92 49.472 30.048 139.68zm-63.936-2.752q2.944-68.864-18.912-100.736-18.592-27.136-61.184-28.608-87.488.128-144.64 96.768Q704 297.408 704 384v1.312l-.096 1.344q-7.008 84.192-51.84 160.256Q596.352 640 552 640q-57.504 0-87.936-146.272-8.992-38.144-31.456-188.768Q415.808 192 356 192q-77.088 0-176.032 156.224l4.384 4.832q25.856-24.704 40.032-24.704 64.192 0 104.96 155.424l31.104 120.768 30.528 118.72Q429.664 832 473.952 832q92.064 0 239.232-202.688 145.728-198.656 150.464-307.808z"/></svg>