<svg viewBox="0 0 1024 1024" xmlns="http://www.w3.org/2000/svg"><path d="M702.016 200.992c-17.376-.864-34.88.384-52.032 4-15.872 3.392-26.368 19.136-22.976 35.008 3.36 15.872 19.104 26.368 35.008 23.008 48.864-10.368 102.112 4.352 137.984 44 35.744 39.744 45.376 94.496 30.016 141.984-5.024 15.52 3.488 32 18.976 37.024 15.392 4.992 32-3.648 37.024-19.008C907.488 400.128 894.496 323.872 844 268c-37.888-41.888-89.76-64.512-141.984-67.008zm-265.024 88c-53.632 5.76-128.48 47.52-195.008 114.016C169.632 475.488 128 552.64 128 619.008c0 126.976 162.624 204 321.984 204 208.896 0 348.032-121.632 348.032-218.016 0-58.24-48.896-91.36-93.024-104.992-10.88-3.264-18.624-4.736-12.992-19.008 12.256-30.88 14.24-57.984.992-76.992-24.864-35.616-93.856-33.76-172-.992 0 0-24.256 11.488-17.984-8 12-38.624 9.728-71.264-8.992-90.016-13.28-13.248-32.64-18.624-57.024-16zm260 16c-8.48-.352-16.608.256-24.992 2.016-13.76 2.88-23.008 17.248-20 30.976 3.008 13.632 16.384 22.016 29.984 19.008 16.384-3.488 35.008 1.76 47.008 15.008s15.136 31.136 10.016 47.008c-4.256 13.248 2.752 27.616 16 32 13.248 4.256 27.744-2.752 32-16 10.496-32.512 3.616-69.76-20.992-97.024-18.4-20.352-43.52-31.872-69.024-32.992zM467.008 473.984C573.248 477.76 658.752 531.008 665.984 604c8.256 83.488-87.872 161.504-214.976 173.984-127.136 12.512-237.76-45.472-246.016-128.992-8.256-83.488 88.896-161.504 216-173.984 15.872-1.632 30.88-1.504 46.016-1.024zM416.992 536c-45.984 4.384-89.248 31.008-108.992 71.008-26.752 54.368-1.12 115.232 60 135.008 63.36 20.352 137.984-11.264 164-70.016 25.632-57.376-6.368-115.872-68.992-132-15.136-3.872-30.624-5.504-46.016-4zm29.024 70.016c1.984 0 3.104.224 4.992.992 7.744 2.88 11.232 11.36 6.976 18.976-4.48 7.648-14.24 11.136-21.984 8-7.616-3.104-10.24-11.488-5.984-18.976 3.36-5.632 9.984-8.896 16-8.992zM387.008 624c5.376.128 11.104.864 16 3.008 19.872 8.48 26.112 31.232 13.984 51.008-12.256 19.616-38.112 28.992-57.984 19.968-19.52-8.864-25.248-31.872-13.024-50.976 9.152-14.272 25.024-23.264 41.024-23.008z"/></svg>