<svg viewBox="0 0 1024 1024" xmlns="http://www.w3.org/2000/svg"><path d="M684.992 160c-13.632 0-28.128 5.376-36.992 12.992-8.864 7.648-12.992 15.648-16 20.992 0 0-77.12 137.024-137.984 245.024-.768-3.52-2.144-6.88-4.032-10.016L427.008 320c-3.136-5.632-8-13.76-17.024-20.992-8.992-7.264-21.984-12.992-35.968-12.992h-93.024c-13.12 0-29.248 5.472-39.008 20.992h-.992c-9.376 15.488-6.112 34.112 0 45.984l.992.992 53.024 93.024L206.016 604c-.384.384-.64.64-1.024.992-6.88 13.376-7.872 31.744 1.024 46.016 7.872 12.608 24.608 20.992 40 20.992h91.968c14.144 0 28.256-5.504 37.024-12.992 8.736-7.52 12.992-15.52 16-20.992 0 0 18.368-32.896 32-57.024.736 2.496 1.728 4.768 2.976 7.008.384.64 132.032 242.016 132.032 242.016 3.232 5.728 8.096 13.6 16.992 20.992C583.872 858.368 597.888 864 612 864h92c13.632 0 30.24-7.008 39.008-20.992 9.376-14.88 8.352-33.376 1.984-46.016L744 796 622.016 574.016 817.984 228c.384-.64.768-1.376 1.024-2.016 6.368-12.736 8.352-29.984-1.024-44.992-8.992-14.624-26.496-20.992-40-20.992zm4 64h56.992L558.016 558.016c-3.648 6.496-3.136 21.856.992 30.976h-.992l.992 2.016V592l113.984 208h-57.984c-.384-.512-.512 0-.992-.992 0 0-107.52-198.272-122.016-224.992 21.888-38.752 196-349.024 196-349.024.736-1.376.64-.352.992-.992zm-376 126.016h56.992c.256.224.128-.512 1.024.992L372 352s39.744 69.12 53.984 94.016c-16.352 28.864-90.976 160.992-90.976 160.992-.64 1.12-.64.352-.992.992h-57.024L360 463.008c.384-1.248.736-2.624.992-4 .768-1.632 3.008-5.504 3.008-12s-2.24-11.392-3.008-13.024c-.608-1.344-1.248-2.72-1.984-3.968z"/></svg>