<svg viewBox="0 0 1024 1024" xmlns="http://www.w3.org/2000/svg"><path d="M459.008 128c-47.136 1.632-147.264 31.616-168 52.992-7.648 7.872-11.264 18.368-9.024 27.008C285.76 215.616 444 464 444 464c23.488 38.016 42.752 32 48.992 30.016 6.272-1.888 25.12-7.648 23.008-52.032-2.24-51.872-17.12-282.24-19.008-292.992-2.624-9.728-10.976-17.248-21.984-20-4.128-.992-9.248-1.248-16-.992zm238.976 227.008c-4.736.128-8.864 1.248-12.992 4-4.992 3.232-8.864 8.128-78.976 104 0 0-31.648 43.616-32 44-8.384 10.112-8.128 24.48 0 36.992 8.48 12.864 21.984 19.616 34.976 16 0 0 .128.736 0 .992 6.496-2.368 18.016-5.984 39.008-10.976 131.008-31.776 135.872-32.64 140.992-36.032C796.864 508.64 800.64 498.88 800 488c0-.384.128-.64 0-.992-3.36-32.128-59.264-115.52-87.008-128.992-4.864-2.4-10.24-3.136-15.008-3.008zM257.984 484c-9.472-.384-18.112 4.736-24 13.984-12.48 20.032-17.344 82.272-12.992 124.032 1.632 13.856 3.392 26.112 7.008 32.992 4.992 9.504 13.504 14.624 23.008 15.008 6.112.224 10.752-1.024 125.984-38.016 0 0 50.752-15.872 51.008-16 12.736-3.264 21.12-15.008 21.984-30.016.896-15.36-6.976-29.12-19.968-33.984 0 0-35.904-15.008-36.032-15.008-123.872-51.104-129.728-52.864-136-52.992zm353.024 140.992c-9.504-.256-20 4.256-27.008 13.024-9.76 11.872-10.752 28.096-3.008 40l20 32.992C669.376 822.112 675.008 829.12 680 832.992c7.616 6.016 16.992 7.008 27.008 3.008 29.12-11.616 92.48-91.872 96.992-123.008 1.504-10.88-1.504-20-8.992-25.984-4.896-3.648-8.896-5.12-124-43.008 0 0-50.368-16.64-51.008-16.992-3.008-1.12-5.888-1.888-8.992-2.016zm-140 36c-6.752 1.504-12.64 5.632-16.992 11.008 0 0-24.896 30.016-25.024 30.016-86.88 101.856-89.856 105.984-92 112-1.248 3.488-2.368 8.224-1.984 11.968.48 5.504 2.88 10.144 7.008 15.008 20.096 23.872 117.248 59.264 147.968 54.016 10.752-2.016 17.632-7.008 21.024-16 1.984-5.888 2.624-9.888 2.976-131.008v-53.984c.896-13.152-7.104-25.632-20.992-31.008-7.104-2.752-15.232-3.52-21.984-2.016z"/></svg>