<svg viewBox="0 0 1024 1027" xmlns="http://www.w3.org/2000/svg"><path d="M512 192c-120.5 0-227 12.5-292 22-53.75 7.875-97.125 48.375-107 102-8.375 45.625-17 112.375-17 196s8.625 150.375 17 196c9.875 53.625 53.25 94.25 107 102 65.25 9.5 172.125 22 292 22s226.75-12.5 292-22c53.75-7.75 97.125-48.375 107-102 8.375-45.75 17-112.625 17-196s-8.5-150.25-17-196c-9.875-53.625-53.25-94.125-107-102-65-9.5-171.5-22-292-22zm0 64c116.25 0 220.125 11.875 283 21 27 4 48.125 24.375 53 51 7.75 42.25 16 104.875 16 184 0 79-8.25 141.75-16 184-4.875 26.625-25.875 47.125-53 51-63.125 9.125-167.5 21-283 21s-220-11.875-283-21c-27-3.875-48.125-24.375-53-51-7.75-42.25-16-104.75-16-184 0-79.375 8.25-141.75 16-184 4.875-26.625 25.875-47 53-51 62.75-9.125 166.75-21 283-21zm-96 73v366l48-27 224-128 48-28-48-28-224-128zm64 110l127 73-127 73z"/></svg>