<svg viewBox="0 0 1024 1024" xmlns="http://www.w3.org/2000/svg"><path d="M980.128 287.616c-11.712 1.344-29.76 6.752-29.76 6.752s-262.368 28.8-371.168 32c3.2 16 12.8 28.8 25.6 32 22.4 3.2 38.4 0 80 0 38.4-3.2 70.368-3.168 89.568-3.168V512H576s3.168 38.368 38.368 38.368h160V659.2c0 22.4-15.968 35.168-38.368 35.168-22.4 0-38.4-3.168-64-3.168 3.2 6.4 6.4 22.368 28.8 35.168 16 6.4 25.568 9.632 41.568 9.632 48 0 73.632-28.832 73.632-73.632v-112h195.2c12.8 0 12.8-38.368 9.6-35.168h-208V358.368c6.4 0 19.2-3.168 35.2-3.168 67.2-3.2 112-12.832 140.8-12.832 0 0 19.2-44.768 0-54.368-1.6-.8-4.768-.832-8.672-.384zM105.632 288s-38.464 0-51.264 35.2C51.168 336 28.8 387.2 0 444.8c9.6 0 38.432-3.168 57.632-35.168 3.2-9.6 12.8-16.032 16-28.832h48c0 16-3.264 115.232-3.264 124.832H35.2C16 505.632 9.632 544 9.632 544H112c-6.4 76.8-44.8 131.232-112 185.632 32 9.6 64-.032 83.2-12.832 0 0 38.4-28.8 57.6-105.6l80 92.8s12.832-44.8-3.168-64c-12.8-16-38.432-44.832-54.432-57.632l-22.4 19.264c6.4-22.4 12.832-35.232 12.832-57.632H256s0-38.368-12.8-38.368h-86.4C160 464.032 160 416 160 380.8h76.8s3.2-35.168-12.8-35.168H83.2c6.4-22.4 12.832-35.232 22.432-57.632zM288 352v352h38.368l12.832 41.632L406.368 704H480V352H288zm649.184 37.696c-5.408.288-10.752 2.304-15.552 7.104L864 473.632 896 496c35.2-41.6 73.632-92.8 73.632-92.8s-16.256-14.4-32.448-13.504zm-610.816.672h112v275.264H400l-44.8 28.736-9.568-28.736h-19.264V390.368zm317.76 4.768c-13.504-.896-29.76 8.064-29.76 8.064s64.064 89.6 67.264 92.8l32-22.368S672 416 656 400c-3.2-3.2-7.36-4.576-11.872-4.864z"/></svg>